<svg width="512" height="512" viewBox="0 0 512 512" fill="none" xmlns="http://www.w3.org/2000/svg">
<path d="M159.462 173.596C165.423 179.876 165.097 189.74 159.63 196.455C136.368 225.028 125.783 263.499 134.055 302.341C148.556 370.418 215.498 413.851 283.575 399.351L290.966 434.048C203.726 452.629 117.94 396.971 99.3586 309.731C88.7296 259.828 102.393 210.403 132.363 173.758C139.286 165.294 151.934 165.665 159.462 173.596Z" fill="white"/>
<path d="M416.223 246.86C417.524 252.92 413.253 258.761 407.083 259.358L402.733 259.779C400.546 259.991 398.519 258.616 397.907 256.507C396.96 253.249 393.191 251.763 390.276 253.498L385.75 256.193C384.064 257.196 381.891 256.247 381.482 254.327L358.909 148.347C357.971 143.947 357.503 141.747 356.27 140.424C355.19 139.263 353.725 138.536 352.148 138.376C350.349 138.193 348.312 139.149 344.24 141.06L288.229 167.346C284.396 169.145 282.479 170.044 281.21 171.464C280.09 172.717 279.329 174.249 279.007 175.898C278.642 177.768 279.083 179.838 279.965 183.979L298.899 272.873C300.676 281.214 301.564 285.385 301.712 289.135C302.341 305.162 294.174 320.255 280.414 328.497C277.195 330.425 273.218 331.963 265.263 335.04L254.004 339.394C234.621 346.891 213.133 335.264 208.803 314.938C204.742 295.869 214.697 276.582 232.595 268.847L245.57 263.239C249.327 261.616 251.205 260.804 252.652 259.704C256.231 256.982 258.393 252.792 258.539 248.298C258.598 246.481 258.172 244.48 257.319 240.478L233.959 130.801C232.437 123.655 231.676 120.082 232.319 116.868C232.886 114.033 234.216 111.407 236.167 109.273C238.378 106.854 241.71 105.355 248.373 102.356L354.606 54.543C360.951 51.6872 364.124 50.2594 366.919 50.573C369.37 50.8481 371.64 51.9962 373.314 53.8073C375.224 55.8727 375.954 59.2743 377.414 66.0774L416.223 246.86Z" fill="white"/>
<path d="M179.765 156.978C184.603 164.422 182.414 174.306 175.657 180.063C141.561 209.111 124.069 255.456 134.055 302.341C148.556 370.418 215.498 413.851 283.575 399.351C350.124 385.176 393.122 320.888 381.474 254.414L416.188 247.02C431.904 332.664 376.679 415.791 290.966 434.048C203.726 452.629 117.94 396.971 99.3586 309.731C86.4718 249.228 109.293 189.426 153.592 152.255C161.804 145.364 173.922 147.991 179.765 156.978Z" fill="white"/>
</svg>
